<?xml version="1.0" standalone="no"?>
<!DOCTYPE svg PUBLIC "-//W3C//DTD SVG 20010904//EN"
 "http://www.w3.org/TR/2001/REC-SVG-20010904/DTD/svg10.dtd">
<svg version="1.0" xmlns="http://www.w3.org/2000/svg"
 width="136.000000pt" height="141.000000pt" viewBox="0 0 136.000000 141.000000"
 preserveAspectRatio="xMidYMid meet">

<g transform="translate(0.000000,141.000000) scale(0.100000,-0.100000)"
fill="#000000" stroke="none">
<path d="M0 1400 c0 -7 228 -10 665 -10 l665 0 0 -670 0 -670 -665 0 -665 0 0
-25 0 -25 680 0 680 0 0 705 0 705 -680 0 c-447 0 -680 -3 -680 -10z"/>
<path d="M7 1374 c-4 -4 -7 -58 -7 -120 0 -93 3 -113 16 -118 9 -3 60 -6 114
-6 71 0 101 4 109 14 8 9 11 51 9 122 l-3 109 -116 3 c-63 1 -118 -1 -122 -4z
m201 -117 l3 -88 -88 3 -88 3 -3 74 c-2 41 -1 80 2 88 4 11 25 13 88 11 l83
-3 3 -88z"/>
<path d="M72 1258 l3 -53 50 0 50 0 3 53 3 52 -56 0 -56 0 3 -52z"/>
<path d="M405 1372 c-11 -12 -4 -22 15 -22 14 0 20 -6 18 -16 -2 -10 3 -19 9
-21 9 -3 12 5 10 28 -2 25 -7 33 -25 34 -12 1 -24 -1 -27 -3z"/>
<path d="M510 1343 c0 -18 5 -33 11 -33 6 0 9 9 6 19 -4 15 2 20 24 23 25 4
29 1 29 -19 0 -13 4 -23 10 -23 5 0 9 14 7 32 -2 30 -5 32 -45 32 -41 1 -42 0
-42 -31z"/>
<path d="M755 1370 c-3 -5 -3 -14 0 -20 3 -5 -3 -10 -14 -10 -12 0 -21 -6 -21
-13 0 -8 12 -14 30 -14 27 0 30 3 30 34 0 32 -12 43 -25 23z"/>
<path d="M937 1373 c-8 -14 -1 -57 11 -61 6 -2 10 9 10 28 -1 30 -12 48 -21
33z"/>
<path d="M977 1373 c-2 -5 -4 -20 -5 -35 -1 -23 2 -27 28 -26 19 1 30 6 30 15
0 8 -8 13 -17 11 -12 -2 -17 3 -15 14 3 17 -14 34 -21 21z"/>
<path d="M1074 1367 c-2 -7 -3 -62 -2 -123 l3 -109 111 -3 c87 -2 114 1 123
12 8 9 11 50 9 122 l-3 109 -118 3 c-91 2 -119 0 -123 -11z m206 -107 l0 -91
-87 3 -88 3 -3 65 c-5 110 -5 110 93 110 l85 0 0 -90z"/>
<path d="M1142 1258 l3 -53 50 0 50 0 0 50 0 50 -53 3 -53 3 3 -53z"/>
<path d="M330 1325 c0 -9 5 -15 11 -13 6 2 11 8 11 13 0 5 -5 11 -11 13 -6 2
-11 -4 -11 -13z"/>
<path d="M650 1325 c0 -9 5 -15 11 -13 6 2 11 8 11 13 0 5 -5 11 -11 13 -6 2
-11 -4 -11 -13z"/>
<path d="M830 1325 c0 -7 14 -12 30 -13 19 0 30 4 30 13 0 9 -11 13 -30 13
-16 -1 -30 -6 -30 -13z"/>
<path d="M292 1270 c0 -20 4 -30 14 -30 9 0 14 11 14 30 0 18 -5 30 -13 30 -9
0 -14 -12 -15 -30z"/>
<path d="M364 1273 c4 -39 26 -42 26 -4 0 20 -5 31 -14 31 -10 0 -14 -9 -12
-27z"/>
<path d="M510 1287 c0 -9 11 -12 35 -11 29 3 35 0 35 -16 0 -11 5 -20 10 -20
6 0 10 14 10 30 0 29 -2 30 -45 30 -31 0 -45 -4 -45 -13z"/>
<path d="M755 1279 c6 -18 4 -20 -14 -14 -15 5 -21 2 -21 -9 0 -11 9 -16 30
-16 27 0 30 3 30 30 0 21 -5 30 -16 30 -11 0 -14 -6 -9 -21z"/>
<path d="M830 1281 c0 -14 -5 -18 -20 -14 -14 4 -20 0 -20 -10 0 -11 9 -15 30
-15 26 1 30 5 30 30 0 15 -4 28 -10 28 -5 0 -10 -9 -10 -19z"/>
<path d="M970 1271 c0 -26 3 -30 30 -29 19 1 30 6 30 15 0 8 -8 13 -17 11 -12
-2 -17 3 -15 15 2 10 -3 17 -13 17 -10 0 -15 -10 -15 -29z"/>
<path d="M440 1255 c0 -8 5 -15 10 -15 6 0 10 7 10 15 0 8 -4 15 -10 15 -5 0
-10 -7 -10 -15z"/>
<path d="M900 1255 c0 -9 5 -15 11 -13 6 2 11 8 11 13 0 5 -5 11 -11 13 -6 2
-11 -4 -11 -13z"/>
<path d="M292 1200 c1 -18 6 -30 15 -30 8 0 13 12 13 30 0 19 -5 30 -14 30
-10 0 -14 -10 -14 -30z"/>
<path d="M470 1200 c0 -18 5 -30 13 -30 8 0 14 12 14 30 0 18 -6 30 -14 30 -8
0 -13 -12 -13 -30z"/>
<path d="M510 1215 c0 -8 5 -15 10 -15 6 0 10 7 10 15 0 8 -4 15 -10 15 -5 0
-10 -7 -10 -15z"/>
<path d="M580 1200 c0 -16 5 -30 10 -30 6 0 10 14 10 30 0 17 -4 30 -10 30 -5
0 -10 -13 -10 -30z"/>
<path d="M613 1200 c0 -18 6 -30 14 -30 8 0 13 12 13 30 0 18 -5 30 -13 30 -8
0 -14 -12 -14 -30z"/>
<path d="M650 1217 c0 -8 12 -14 30 -14 18 0 30 6 30 14 0 8 -12 13 -30 13
-18 0 -30 -5 -30 -13z"/>
<path d="M722 1200 c1 -26 5 -30 30 -30 24 0 28 4 28 30 0 27 -3 30 -29 30
-26 0 -30 -3 -29 -30z m38 0 c0 -5 -4 -10 -10 -10 -5 0 -10 5 -10 10 0 6 5 10
10 10 6 0 10 -4 10 -10z"/>
<path d="M792 1218 c3 -8 22 -13 48 -13 26 0 45 5 48 13 2 8 -11 12 -48 12
-37 0 -50 -4 -48 -12z"/>
<path d="M900 1200 c0 -27 3 -30 31 -30 20 0 29 4 26 13 -2 6 -12 11 -21 9
-14 -3 -16 1 -11 17 5 15 2 21 -9 21 -11 0 -16 -9 -16 -30z"/>
<path d="M1010 1209 c0 -16 -4 -19 -20 -14 -14 4 -20 2 -20 -9 0 -10 10 -14
30 -14 26 1 30 5 30 30 0 15 -4 28 -10 28 -5 0 -10 -9 -10 -21z"/>
<path d="M330 1184 c0 -10 15 -13 50 -13 65 2 62 24 -3 25 -33 1 -47 -3 -47
-12z"/>
<path d="M292 1130 c1 -16 6 -30 13 -30 7 0 12 14 13 30 0 19 -4 30 -13 30 -9
0 -13 -11 -13 -30z"/>
<path d="M362 1148 c6 -18 28 -21 28 -4 0 9 -7 16 -16 16 -9 0 -14 -5 -12 -12z"/>
<path d="M440 1140 c0 -14 -6 -20 -16 -18 -10 2 -19 -3 -21 -9 -3 -8 4 -13 16
-13 14 0 21 -6 21 -20 0 -11 5 -20 11 -20 6 0 9 9 6 20 -4 16 0 20 20 20 15 0
23 5 20 13 -2 6 -11 11 -21 9 -10 -2 -16 4 -16 18 0 11 -4 20 -10 20 -5 0 -10
-9 -10 -20z"/>
<path d="M510 1145 c0 -8 5 -15 10 -15 6 0 10 7 10 15 0 8 -4 15 -10 15 -5 0
-10 -7 -10 -15z"/>
<path d="M580 1145 c0 -8 5 -15 10 -15 6 0 10 7 10 15 0 8 -4 15 -10 15 -5 0
-10 -7 -10 -15z"/>
<path d="M650 1131 c0 -20 5 -31 14 -31 10 0 14 9 12 27 -4 39 -26 42 -26 4z"/>
<path d="M720 1144 c0 -17 22 -14 28 4 2 7 -3 12 -12 12 -9 0 -16 -7 -16 -16z"/>
<path d="M793 1130 c0 -26 4 -30 29 -30 17 0 28 5 28 14 0 9 -7 12 -19 9 -16
-4 -19 -1 -14 16 4 14 1 21 -9 21 -10 0 -15 -10 -15 -30z"/>
<path d="M862 1148 c6 -18 28 -21 28 -4 0 9 -7 16 -16 16 -9 0 -14 -5 -12 -12z"/>
<path d="M932 1148 c6 -18 28 -21 28 -4 0 9 -7 16 -16 16 -9 0 -14 -5 -12 -12z"/>
<path d="M1010 1145 c0 -8 5 -15 10 -15 6 0 10 7 10 15 0 8 -4 15 -10 15 -5 0
-10 -7 -10 -15z"/>
<path d="M336 1123 c-11 -11 -6 -23 9 -23 8 0 15 4 15 9 0 13 -16 22 -24 14z"/>
<path d="M546 1123 c-11 -11 -6 -23 9 -23 8 0 15 4 15 9 0 13 -16 22 -24 14z"/>
<path d="M616 1123 c-11 -11 -6 -23 9 -23 8 0 15 4 15 9 0 13 -16 22 -24 14z"/>
<path d="M757 1123 c-3 -5 -3 -23 -1 -40 3 -28 0 -33 -16 -33 -11 0 -20 -4
-20 -10 0 -5 9 -10 20 -10 14 0 20 -6 18 -16 -2 -10 3 -19 10 -21 9 -4 12 13
12 61 0 58 -11 89 -23 69z"/>
<path d="M906 1123 c-11 -11 -6 -23 9 -23 8 0 15 4 15 9 0 13 -16 22 -24 14z"/>
<path d="M977 1123 c-2 -5 -5 -27 -6 -50 -2 -42 -1 -43 29 -43 16 0 30 5 30
10 0 6 -8 10 -18 10 -15 0 -18 7 -16 35 3 32 -9 56 -19 38z"/>
<path d="M10 1075 c0 -8 5 -15 10 -15 6 0 10 7 10 15 0 8 -4 15 -10 15 -5 0
-10 -7 -10 -15z"/>
<path d="M80 1073 c0 -10 6 -12 21 -8 18 6 20 4 14 -14 -4 -15 -2 -21 8 -21 8
0 14 11 15 28 0 25 -3 29 -29 29 -18 0 -29 -6 -29 -14z"/>
<path d="M150 1039 c0 -38 4 -49 16 -49 11 0 14 6 9 20 -5 16 -2 20 14 20 16
0 21 6 21 28 0 25 -4 29 -30 30 -29 1 -30 0 -30 -49z m40 21 c0 -5 -5 -10 -11
-10 -5 0 -7 5 -4 10 3 6 8 10 11 10 2 0 4 -4 4 -10z"/>
<path d="M220 1075 c0 -8 7 -15 15 -15 8 0 15 7 15 15 0 8 -7 15 -15 15 -8 0
-15 -7 -15 -15z"/>
<path d="M510 1075 c0 -8 5 -15 10 -15 6 0 10 7 10 15 0 8 -4 15 -10 15 -5 0
-10 -7 -10 -15z"/>
<path d="M580 1075 c0 -8 5 -15 10 -15 6 0 10 7 10 15 0 8 -4 15 -10 15 -5 0
-10 -7 -10 -15z"/>
<path d="M937 1084 c-8 -8 1 -24 14 -24 5 0 9 7 9 15 0 15 -12 20 -23 9z"/>
<path d="M1080 1039 c0 -27 5 -49 10 -49 6 0 10 9 10 20 0 15 7 20 29 20 25 0
28 -3 24 -21 -4 -16 -2 -20 8 -17 9 3 13 17 12 40 -2 32 0 36 22 34 25 -1 30
-13 26 -57 -1 -13 8 -16 49 -16 33 0 49 4 47 11 -2 6 -12 10 -21 10 -10 -1
-16 6 -16 17 0 12 -7 19 -20 19 -14 0 -20 6 -18 17 3 16 -7 18 -79 19 l-83 1
0 -48z m35 21 c3 -5 1 -10 -4 -10 -6 0 -11 5 -11 10 0 6 2 10 4 10 3 0 8 -4
11 -10z m35 0 c0 -5 -5 -10 -11 -10 -5 0 -7 5 -4 10 3 6 8 10 11 10 2 0 4 -4
4 -10z m110 -40 c0 -5 -4 -10 -10 -10 -5 0 -10 5 -10 10 0 6 5 10 10 10 6 0
10 -4 10 -10z"/>
<path d="M260 1038 c0 -4 9 -8 19 -8 14 0 18 -5 14 -20 -4 -14 0 -20 10 -20
11 0 15 9 15 29 -1 26 -5 29 -30 29 -15 -1 -28 -5 -28 -10z"/>
<path d="M365 1029 c6 -18 4 -20 -14 -14 -16 5 -21 2 -21 -10 0 -13 8 -16 33
-14 33 3 37 0 37 -28 0 -12 -8 -18 -25 -19 -21 -2 -25 2 -20 17 4 13 2 19 -9
19 -11 0 -16 -9 -16 -30 0 -29 1 -30 49 -29 l48 2 -2 46 c-1 38 -5 46 -21 46
-12 0 -18 6 -16 18 2 10 -4 17 -13 17 -12 0 -15 -6 -10 -21z"/>
<path d="M470 1040 c0 -5 7 -10 15 -10 8 0 15 5 15 10 0 6 -7 10 -15 10 -8 0
-15 -4 -15 -10z"/>
<path d="M545 1029 c6 -18 4 -20 -14 -14 -15 4 -21 2 -21 -8 0 -10 16 -14 65
-14 65 0 65 0 65 28 0 20 -5 29 -16 29 -11 0 -13 -6 -9 -19 5 -17 2 -19 -22
-17 -19 3 -27 9 -25 20 2 9 -4 16 -13 16 -12 0 -15 -6 -10 -21z"/>
<path d="M652 1022 c0 -25 3 -29 29 -30 19 0 29 4 29 14 0 11 -6 13 -21 9 -18
-6 -20 -4 -14 14 4 15 2 21 -8 21 -9 0 -14 -11 -15 -28z"/>
<path d="M794 985 c-1 -48 2 -65 12 -65 10 0 13 17 12 65 -1 40 -6 65 -13 65
-7 0 -11 -25 -11 -65z"/>
<path d="M860 1040 c0 -5 7 -10 15 -10 8 0 15 5 15 10 0 6 -7 10 -15 10 -8 0
-15 -4 -15 -10z"/>
<path d="M900 1020 c0 -27 3 -30 30 -30 21 0 30 5 30 16 0 11 -6 14 -21 9 -18
-6 -20 -4 -14 14 5 15 2 21 -9 21 -11 0 -16 -9 -16 -30z"/>
<path d="M10 1003 c0 -8 6 -13 14 -11 8 2 14 -1 13 -7 -1 -5 -8 -9 -14 -7 -7
2 -13 -4 -13 -13 0 -12 6 -15 21 -10 18 6 20 4 14 -14 -6 -19 -3 -21 27 -18
25 2 32 7 30 21 -3 14 1 16 17 11 15 -5 21 -2 21 10 0 13 -8 16 -37 13 -33 -2
-38 0 -35 18 2 17 -3 21 -28 21 -19 0 -30 -5 -30 -14z"/>
<path d="M220 1006 c0 -9 7 -16 16 -16 17 0 14 22 -4 28 -7 2 -12 -3 -12 -12z"/>
<path d="M1040 1006 c0 -9 7 -16 16 -16 9 0 14 5 12 12 -6 18 -28 21 -28 4z"/>
<path d="M150 950 c0 -18 5 -30 13 -30 8 0 14 12 14 30 0 18 -6 30 -14 30 -8
0 -13 -12 -13 -30z"/>
<path d="M260 962 c0 -8 6 -12 15 -8 10 4 15 -1 15 -14 0 -11 7 -20 15 -20 10
0 15 10 15 29 0 26 -3 30 -30 29 -19 -1 -30 -6 -30 -16z"/>
<path d="M542 951 c1 -27 3 -28 49 -28 33 0 49 4 49 13 0 8 -12 11 -35 10 -28
-3 -35 0 -35 15 0 11 -6 19 -14 19 -10 0 -14 -10 -14 -29z"/>
<path d="M650 964 c0 -11 6 -14 21 -9 18 6 20 4 14 -14 -5 -15 -2 -21 9 -21
11 0 16 9 16 30 0 27 -3 30 -30 30 -21 0 -30 -5 -30 -16z"/>
<path d="M720 950 c0 -21 5 -30 16 -30 11 0 14 6 9 21 -6 18 -4 20 14 14 15
-5 21 -2 21 9 0 11 -9 16 -30 16 -27 0 -30 -3 -30 -30z"/>
<path d="M862 969 c2 -6 8 -10 13 -10 5 0 11 4 13 10 2 6 -4 11 -13 11 -9 0
-15 -5 -13 -11z"/>
<path d="M1007 974 c-8 -8 1 -24 14 -24 5 0 9 7 9 15 0 15 -12 20 -23 9z"/>
<path d="M1040 964 c0 -9 5 -14 12 -12 18 6 21 28 4 28 -9 0 -16 -7 -16 -16z"/>
<path d="M1080 952 c0 -29 1 -30 47 -28 44 1 47 3 47 26 1 23 -4 25 -47 28
-46 3 -47 3 -47 -26z"/>
<path d="M1290 961 c0 -15 -7 -18 -35 -15 -23 1 -35 -2 -35 -10 0 -9 16 -13
48 -13 47 0 49 1 49 28 0 18 -6 29 -14 29 -7 0 -13 -8 -13 -19z"/>
<path d="M220 936 c0 -9 7 -16 16 -16 17 0 14 22 -4 28 -7 2 -12 -3 -12 -12z"/>
<path d="M900 933 c0 -8 12 -13 30 -13 18 0 30 5 30 13 0 8 -12 14 -30 14 -18
0 -30 -6 -30 -14z"/>
<path d="M42 880 c1 -35 25 -41 31 -7 l4 22 2 -22 c1 -19 7 -23 32 -23 20 0
29 4 26 13 -2 6 -12 11 -21 9 -12 -2 -16 3 -14 14 2 14 -5 19 -29 21 -29 2
-32 0 -31 -27z"/>
<path d="M187 904 c-8 -8 1 -24 14 -24 5 0 9 7 9 15 0 15 -12 20 -23 9z"/>
<path d="M290 895 c0 -8 7 -15 15 -15 8 0 15 7 15 15 0 8 -7 15 -15 15 -8 0
-15 -7 -15 -15z"/>
<path d="M400 890 c0 -14 -5 -20 -16 -18 -10 2 -19 -2 -21 -8 -3 -8 9 -12 31
-12 31 0 34 2 32 26 -4 32 -26 42 -26 12z"/>
<path d="M1007 904 c-8 -8 1 -24 14 -24 5 0 9 7 9 15 0 15 -12 20 -23 9z"/>
<path d="M1113 890 c4 -17 2 -20 -14 -15 -13 4 -19 2 -19 -9 0 -12 14 -15 66
-15 46 0 64 4 61 12 -2 7 -18 11 -35 10 -26 -1 -32 2 -32 18 0 11 -7 19 -16
19 -12 0 -15 -6 -11 -20z"/>
<path d="M1257 904 c-8 -8 1 -24 14 -24 5 0 9 7 9 15 0 15 -12 20 -23 9z"/>
<path d="M226 873 c-11 -11 -6 -23 9 -23 8 0 15 4 15 9 0 13 -16 22 -24 14z"/>
<path d="M266 871 c-4 -7 -5 -15 -2 -18 9 -9 19 4 14 18 -4 11 -6 11 -12 0z"/>
<path d="M507 873 c-9 -8 -9 -276 -1 -297 5 -14 28 -16 148 -16 97 0 146 4
154 12 17 17 17 279 0 296 -13 13 -289 18 -301 5z m171 -79 c12 -8 22 -21 22
-28 0 -8 11 -17 25 -20 35 -9 50 -41 35 -77 -11 -25 -18 -29 -50 -29 -43 0
-69 20 -71 53 -1 16 -3 17 -6 5 -7 -29 -46 -26 -65 5 -25 38 -22 62 8 86 32
25 71 27 102 5z"/>
<path d="M970 866 c0 -9 7 -16 16 -16 17 0 14 22 -4 28 -7 2 -12 -3 -12 -12z"/>
<path d="M1296 873 c-11 -11 -6 -23 9 -23 8 0 15 4 15 9 0 13 -16 22 -24 14z"/>
<path d="M42 810 c1 -27 4 -30 35 -30 18 0 33 5 33 11 0 5 -10 9 -22 7 -19 -2
-22 1 -20 20 2 14 -2 22 -12 22 -10 0 -14 -10 -14 -30z"/>
<path d="M260 816 c0 -19 -4 -23 -20 -19 -11 3 -20 0 -20 -6 0 -6 14 -11 30
-11 27 0 30 3 30 30 0 17 -4 30 -10 30 -5 0 -10 -11 -10 -24z"/>
<path d="M330 825 c0 -9 5 -15 11 -13 6 2 11 8 11 13 0 5 -5 11 -11 13 -6 2
-11 -4 -11 -13z"/>
<path d="M400 823 c0 -8 12 -13 30 -13 18 0 30 5 30 13 0 8 -12 14 -30 14 -18
0 -30 -6 -30 -14z"/>
<path d="M937 833 c-12 -11 -8 -23 8 -23 8 0 15 7 15 15 0 16 -12 20 -23 8z"/>
<path d="M970 825 c0 -8 7 -15 15 -15 8 0 15 7 15 15 0 8 -7 15 -15 15 -8 0
-15 -7 -15 -15z"/>
<path d="M1040 825 c0 -8 7 -15 15 -15 8 0 15 7 15 15 0 8 -7 15 -15 15 -8 0
-15 -7 -15 -15z"/>
<path d="M1080 809 c0 -26 4 -29 30 -29 24 0 30 4 28 17 -2 11 4 18 14 18 10
0 18 5 18 10 0 6 -20 11 -45 11 -43 2 -45 1 -45 -27z m35 1 c3 -5 1 -10 -4
-10 -6 0 -11 5 -11 10 0 6 2 10 4 10 3 0 8 -4 11 -10z"/>
<path d="M1257 834 c-3 -3 -3 -12 0 -20 3 -9 -2 -14 -16 -14 -12 0 -21 -4 -21
-10 0 -5 23 -10 50 -10 28 0 50 5 50 10 0 6 -11 10 -24 10 -19 0 -23 4 -19 20
5 19 -7 27 -20 14z"/>
<path d="M185 790 c-3 -5 1 -10 9 -10 9 0 16 5 16 10 0 6 -4 10 -9 10 -6 0
-13 -4 -16 -10z"/>
<path d="M860 790 c0 -5 7 -10 15 -10 8 0 15 5 15 10 0 6 -7 10 -15 10 -8 0
-15 -4 -15 -10z"/>
<path d="M1005 790 c-3 -5 1 -10 9 -10 9 0 16 5 16 10 0 6 -4 10 -9 10 -6 0
-13 -4 -16 -10z"/>
<path d="M150 756 c0 -9 7 -16 16 -16 9 0 14 5 12 12 -6 18 -28 21 -28 4z"/>
<path d="M260 756 c0 -8 13 -13 31 -14 37 -1 34 20 -4 24 -17 2 -27 -2 -27
-10z"/>
<path d="M437 764 c-8 -8 1 -24 14 -24 5 0 9 7 9 15 0 15 -12 20 -23 9z"/>
<path d="M937 763 c-12 -11 -8 -23 8 -23 8 0 15 7 15 15 0 16 -12 20 -23 8z"/>
<path d="M970 756 c0 -9 7 -16 16 -16 17 0 14 22 -4 28 -7 2 -12 -3 -12 -12z"/>
<path d="M1040 756 c0 -9 7 -16 16 -16 17 0 14 22 -4 28 -7 2 -12 -3 -12 -12z"/>
<path d="M1080 755 c0 -8 5 -15 10 -15 6 0 10 7 10 15 0 8 -4 15 -10 15 -5 0
-10 -7 -10 -15z"/>
<path d="M1187 763 c-12 -11 -8 -23 8 -23 8 0 15 7 15 15 0 16 -12 20 -23 8z"/>
<path d="M1257 764 c-3 -3 -3 -12 0 -20 3 -9 -2 -14 -16 -14 -12 0 -21 -6 -21
-13 0 -18 92 -17 98 1 2 7 -6 12 -21 12 -20 0 -24 4 -20 20 5 19 -7 27 -20 14z"/>
<path d="M10 717 c0 -8 12 -14 30 -14 18 0 30 6 30 14 0 8 -12 13 -30 13 -18
0 -30 -5 -30 -13z"/>
<path d="M220 716 c0 -7 12 -13 30 -13 17 0 30 6 30 12 0 7 -13 12 -30 13 -18
0 -30 -4 -30 -12z"/>
<path d="M330 717 c0 -18 92 -17 98 1 2 8 -11 12 -47 12 -36 0 -51 -4 -51 -13z"/>
<path d="M862 718 c6 -18 28 -21 28 -4 0 9 -7 16 -16 16 -9 0 -14 -5 -12 -12z"/>
<path d="M900 714 c0 -9 5 -14 12 -12 18 6 21 28 4 28 -9 0 -16 -7 -16 -16z"/>
<path d="M970 717 c0 -8 12 -14 30 -14 18 0 30 6 30 14 0 8 -12 13 -30 13 -18
0 -30 -5 -30 -13z"/>
<path d="M1040 714 c0 -17 22 -14 28 4 2 7 -3 12 -12 12 -9 0 -16 -7 -16 -16z"/>
<path d="M1112 718 c6 -18 28 -21 28 -4 0 9 -7 16 -16 16 -9 0 -14 -5 -12 -12z"/>
<path d="M110 680 c0 -5 7 -10 15 -10 8 0 15 5 15 10 0 6 -7 10 -15 10 -8 0
-15 -4 -15 -10z"/>
<path d="M402 679 c2 -6 8 -10 13 -10 5 0 11 4 13 10 2 6 -4 11 -13 11 -9 0
-15 -5 -13 -11z"/>
<path d="M934 675 c4 -10 -1 -15 -14 -15 -11 0 -20 -6 -20 -14 0 -10 10 -14
30 -14 26 1 30 5 30 30 0 19 -5 28 -16 28 -10 0 -14 -6 -10 -15z"/>
<path d="M970 660 c0 -19 5 -30 14 -30 10 0 14 10 14 30 -1 18 -6 30 -15 30
-8 0 -13 -12 -13 -30z"/>
<path d="M1180 680 c0 -5 7 -10 15 -10 8 0 15 5 15 10 0 6 -7 10 -15 10 -8 0
-15 -4 -15 -10z"/>
<path d="M1290 680 c0 -5 7 -10 15 -10 8 0 15 5 15 10 0 6 -7 10 -15 10 -8 0
-15 -4 -15 -10z"/>
<path d="M40 645 c0 -10 9 -14 32 -12 45 4 49 27 4 27 -25 0 -36 -4 -36 -15z"/>
<path d="M182 648 c6 -18 28 -21 28 -4 0 9 -7 16 -16 16 -9 0 -14 -5 -12 -12z"/>
<path d="M220 645 c0 -8 7 -15 15 -15 8 0 15 7 15 15 0 8 -7 15 -15 15 -8 0
-15 -7 -15 -15z"/>
<path d="M290 645 c0 -8 7 -15 15 -15 8 0 15 7 15 15 0 8 -7 15 -15 15 -8 0
-15 -7 -15 -15z"/>
<path d="M362 648 c6 -18 28 -21 28 -4 0 9 -7 16 -16 16 -9 0 -14 -5 -12 -12z"/>
<path d="M437 654 c-8 -8 1 -24 14 -24 5 0 9 7 9 15 0 15 -12 20 -23 9z"/>
<path d="M860 645 c0 -8 7 -15 15 -15 8 0 15 7 15 15 0 8 -7 15 -15 15 -8 0
-15 -7 -15 -15z"/>
<path d="M1040 645 c0 -8 7 -15 15 -15 8 0 15 7 15 15 0 8 -7 15 -15 15 -8 0
-15 -7 -15 -15z"/>
<path d="M1080 645 c0 -8 5 -15 10 -15 6 0 10 7 10 15 0 8 -4 15 -10 15 -5 0
-10 -7 -10 -15z"/>
<path d="M1150 645 c0 -9 5 -15 11 -13 6 2 11 8 11 13 0 5 -5 11 -11 13 -6 2
-11 -4 -11 -13z"/>
<path d="M1220 644 c0 -17 22 -14 28 4 2 7 -3 12 -12 12 -9 0 -16 -7 -16 -16z"/>
<path d="M10 611 c0 -6 5 -13 10 -16 6 -3 10 1 10 9 0 9 -4 16 -10 16 -5 0
-10 -4 -10 -9z"/>
<path d="M42 609 c2 -6 8 -10 13 -10 5 0 11 4 13 10 2 6 -4 11 -13 11 -9 0
-15 -5 -13 -11z"/>
<path d="M82 609 c2 -6 8 -10 13 -10 5 0 11 4 13 10 2 6 -4 11 -13 11 -9 0
-15 -5 -13 -11z"/>
<path d="M260 601 c0 -14 -5 -18 -20 -14 -13 4 -20 0 -20 -10 0 -11 12 -14 50
-14 38 0 50 3 50 14 0 10 -7 14 -20 10 -15 -4 -20 0 -20 14 0 10 -4 19 -10 19
-5 0 -10 -9 -10 -19z"/>
<path d="M402 609 c2 -6 8 -10 13 -10 5 0 11 4 13 10 2 6 -4 11 -13 11 -9 0
-15 -5 -13 -11z"/>
<path d="M900 590 c0 -27 3 -30 30 -30 20 0 30 5 30 15 0 10 -7 15 -17 13 -12
-2 -17 3 -15 15 2 10 -3 17 -13 17 -10 0 -15 -10 -15 -30z"/>
<path d="M1010 601 c0 -14 -5 -18 -20 -14 -14 4 -20 0 -20 -10 0 -11 9 -15 30
-15 26 1 30 5 30 30 0 15 -4 28 -10 28 -5 0 -10 -9 -10 -19z"/>
<path d="M1040 590 c0 -19 5 -30 14 -30 10 0 14 10 14 30 -1 18 -6 30 -15 30
-8 0 -13 -12 -13 -30z"/>
<path d="M1182 603 c2 -15 -4 -18 -34 -16 -26 2 -38 -2 -38 -11 0 -9 15 -13
50 -13 48 0 50 1 50 28 0 20 -5 29 -15 29 -10 0 -15 -7 -13 -17z"/>
<path d="M1260 600 c0 -11 0 -23 1 -27 0 -5 14 -9 30 -10 21 -2 29 2 29 13 0
11 -6 15 -20 11 -15 -4 -20 0 -20 14 0 10 -4 19 -10 19 -5 0 -10 -9 -10 -20z"/>
<path d="M117 583 c-12 -11 -8 -23 8 -23 8 0 15 7 15 15 0 16 -12 20 -23 8z"/>
<path d="M187 584 c-8 -8 1 -24 14 -24 5 0 9 7 9 15 0 15 -12 20 -23 9z"/>
<path d="M330 575 c0 -9 5 -15 11 -13 6 2 11 8 11 13 0 5 -5 11 -11 13 -6 2
-11 -4 -11 -13z"/>
<path d="M10 533 c0 -10 6 -12 21 -8 18 6 20 4 14 -14 -4 -15 -2 -21 9 -21 10
0 14 10 14 29 -1 26 -5 29 -30 29 -17 -1 -28 -6 -28 -15z"/>
<path d="M190 534 c0 -8 5 -12 10 -9 6 3 10 10 10 16 0 5 -4 9 -10 9 -5 0 -10
-7 -10 -16z"/>
<path d="M260 541 c0 -6 5 -13 10 -16 6 -3 10 1 10 9 0 9 -4 16 -10 16 -5 0
-10 -4 -10 -9z"/>
<path d="M333 537 c2 -7 22 -11 55 -10 l51 1 -1 -64 c-1 -57 -3 -64 -20 -58
-12 4 -18 0 -18 -11 0 -12 6 -15 20 -10 17 5 20 2 20 -24 0 -26 -3 -29 -27
-27 -19 3 -27 9 -25 20 2 9 -4 16 -13 16 -10 0 -15 -7 -13 -17 2 -12 -3 -17
-14 -15 -11 2 -18 -3 -18 -12 0 -12 13 -15 66 -14 l65 2 -3 35 c-2 27 1 36 12
36 16 0 21 20 5 20 -13 0 -15 7 -15 50 0 29 4 35 21 35 12 0 19 5 17 12 -3 7
-13 13 -24 13 -12 0 -18 6 -16 16 2 12 -10 16 -64 17 -48 1 -64 -2 -61 -11z"/>
<path d="M902 539 c2 -6 8 -10 13 -10 5 0 11 4 13 10 2 6 -4 11 -13 11 -9 0
-15 -5 -13 -11z"/>
<path d="M1112 538 c5 -15 58 -17 58 -2 0 6 -14 11 -31 12 -18 0 -29 -4 -27
-10z"/>
<path d="M1260 528 c0 -14 -5 -18 -19 -13 -16 5 -19 1 -19 -30 0 -23 4 -35 12
-32 6 2 10 11 8 21 -2 11 4 16 19 16 17 0 20 5 16 20 -4 17 -1 20 15 18 12 -2
23 2 25 9 3 7 -7 11 -26 11 -24 -1 -31 -6 -31 -20z"/>
<path d="M116 513 c-11 -11 -6 -23 9 -23 8 0 15 4 15 9 0 13 -16 22 -24 14z"/>
<path d="M226 513 c-11 -11 -6 -23 9 -23 8 0 15 4 15 9 0 13 -16 22 -24 14z"/>
<path d="M580 505 c0 -8 5 -15 10 -15 6 0 10 7 10 15 0 8 -4 15 -10 15 -5 0
-10 -7 -10 -15z"/>
<path d="M687 513 c-12 -11 -8 -23 8 -23 8 0 15 7 15 15 0 16 -12 20 -23 8z"/>
<path d="M755 510 c-3 -5 -3 -14 0 -20 3 -5 -3 -10 -15 -10 -31 0 -19 -22 13
-26 25 -2 27 0 27 32 0 33 -12 45 -25 24z"/>
<path d="M830 505 c0 -8 5 -15 10 -15 6 0 10 7 10 15 0 8 -4 15 -10 15 -5 0
-10 -7 -10 -15z"/>
<path d="M936 513 c-11 -11 -6 -23 9 -23 8 0 15 4 15 9 0 13 -16 22 -24 14z"/>
<path d="M970 488 c0 -32 3 -35 30 -35 19 0 30 5 30 14 0 8 -8 13 -17 11 -12
-2 -18 4 -18 16 0 11 -6 21 -12 23 -9 3 -13 -7 -13 -29z"/>
<path d="M1046 513 c-11 -11 -6 -23 9 -23 8 0 15 4 15 9 0 13 -16 22 -24 14z"/>
<path d="M10 415 c0 -37 4 -65 10 -65 6 0 10 28 10 65 0 37 -4 65 -10 65 -6 0
-10 -28 -10 -65z"/>
<path d="M187 474 c-3 -3 -3 -12 0 -20 3 -9 -2 -14 -14 -14 -15 0 -20 -7 -21
-31 0 -19 4 -29 11 -26 7 2 11 12 11 21 -1 10 6 16 17 16 14 0 19 7 19 30 0
28 -9 38 -23 24z"/>
<path d="M362 469 c2 -6 8 -10 13 -10 5 0 11 4 13 10 2 6 -4 11 -13 11 -9 0
-15 -5 -13 -11z"/>
<path d="M510 448 c0 -20 5 -28 18 -28 14 0 17 -8 16 -42 0 -34 -4 -42 -17
-40 -9 2 -17 -3 -17 -11 0 -10 13 -14 45 -14 43 0 45 1 45 28 0 21 -5 29 -17
29 -12 0 -18 8 -18 25 0 17 6 25 18 25 9 0 17 5 17 10 0 6 -9 10 -21 10 -16 0
-19 4 -14 19 5 17 1 20 -25 19 -26 -1 -30 -5 -30 -30z m40 2 c0 -5 -4 -10 -10
-10 -5 0 -10 5 -10 10 0 6 5 10 10 10 6 0 10 -4 10 -10z m30 -106 c0 -8 -5
-12 -10 -9 -6 4 -8 11 -5 16 9 14 15 11 15 -7z"/>
<path d="M612 468 c6 -18 28 -21 28 -4 0 9 -7 16 -16 16 -9 0 -14 -5 -12 -12z"/>
<path d="M653 430 c0 -41 3 -50 16 -48 12 2 16 -5 15 -34 -1 -26 3 -38 12 -38
11 0 14 17 14 65 0 59 -2 65 -20 65 -14 0 -20 6 -18 16 2 10 -2 19 -8 21 -7 2
-11 -14 -11 -47z m37 -14 c0 -3 -4 -8 -10 -11 -5 -3 -10 -1 -10 4 0 6 5 11 10
11 6 0 10 -2 10 -4z"/>
<path d="M792 469 c2 -6 8 -10 13 -10 5 0 11 4 13 10 2 6 -4 11 -13 11 -9 0
-15 -5 -13 -11z"/>
<path d="M862 469 c2 -6 8 -10 13 -10 5 0 11 4 13 10 2 6 -4 11 -13 11 -9 0
-15 -5 -13 -11z"/>
<path d="M900 451 c0 -24 4 -31 19 -31 13 0 19 -7 19 -25 0 -18 -6 -25 -19
-25 -11 0 -19 -4 -19 -10 0 -5 13 -10 29 -10 27 0 28 2 28 45 0 38 -3 45 -19
45 -12 0 -18 6 -16 16 2 10 -3 19 -9 21 -9 3 -13 -6 -13 -26z"/>
<path d="M1080 449 c0 -16 5 -29 10 -29 6 0 10 8 10 19 0 13 7 19 25 19 24 0
27 -7 25 -45 -1 -5 -10 -6 -22 -5 -17 3 -20 0 -15 -17 4 -16 0 -21 -14 -21
-10 0 -19 -5 -19 -11 0 -6 15 -9 38 -7 33 2 37 0 34 -18 -2 -17 3 -21 28 -22
20 0 30 4 30 14 0 11 -6 13 -19 9 -17 -5 -20 -1 -19 25 1 25 4 29 20 25 12 -5
18 -1 18 10 0 12 -6 15 -20 10 -17 -6 -19 -2 -17 32 l2 38 -47 1 c-47 2 -48 1
-48 -27z m75 -69 c3 -5 -1 -10 -10 -10 -9 0 -13 5 -10 10 3 6 8 10 10 10 2 0
7 -4 10 -10z"/>
<path d="M1255 442 c-8 -9 6 -22 23 -22 15 0 17 -9 15 -55 -1 -40 2 -55 11
-55 10 0 13 18 13 64 0 63 -1 64 -29 68 -15 3 -30 2 -33 0z"/>
<path d="M80 430 c0 -5 7 -10 15 -10 8 0 15 5 15 10 0 6 -7 10 -15 10 -8 0
-15 -4 -15 -10z"/>
<path d="M220 430 c0 -5 7 -10 15 -10 8 0 15 5 15 10 0 6 -7 10 -15 10 -8 0
-15 -4 -15 -10z"/>
<path d="M330 430 c0 -5 7 -10 15 -10 8 0 15 5 15 10 0 6 -7 10 -15 10 -8 0
-15 -4 -15 -10z"/>
<path d="M1043 395 c0 -29 4 -45 12 -45 8 0 12 16 12 45 0 29 -4 45 -12 45 -8
0 -12 -16 -12 -45z"/>
<path d="M290 395 c0 -8 7 -15 15 -15 8 0 15 7 15 15 0 8 -7 15 -15 15 -8 0
-15 -7 -15 -15z"/>
<path d="M723 359 c0 -36 3 -49 14 -49 10 0 12 6 8 20 -5 16 -2 20 14 20 16 0
21 6 21 28 0 25 -4 29 -29 30 -27 1 -28 -1 -28 -49z m37 21 c0 -5 -5 -10 -11
-10 -5 0 -7 5 -4 10 3 6 8 10 11 10 2 0 4 -4 4 -10z"/>
<path d="M793 360 c0 -33 4 -50 12 -50 8 0 12 17 12 50 0 33 -4 50 -12 50 -8
0 -12 -17 -12 -50z"/>
<path d="M862 380 c1 -16 6 -30 13 -30 7 0 12 14 13 30 0 19 -4 30 -13 30 -9
0 -13 -11 -13 -30z"/>
<path d="M1007 404 c-8 -8 1 -24 14 -24 5 0 9 7 9 15 0 15 -12 20 -23 9z"/>
<path d="M110 360 c0 -5 7 -10 15 -10 8 0 15 5 15 10 0 6 -7 10 -15 10 -8 0
-15 -4 -15 -10z"/>
<path d="M185 360 c3 -5 10 -10 16 -10 5 0 9 5 9 10 0 6 -7 10 -16 10 -8 0
-12 -4 -9 -10z"/>
<path d="M220 360 c0 -5 7 -10 15 -10 8 0 15 5 15 10 0 6 -7 10 -15 10 -8 0
-15 -4 -15 -10z"/>
<path d="M1007 351 c4 -16 1 -19 -16 -14 -15 4 -21 1 -21 -10 0 -11 9 -15 30
-15 26 1 30 5 30 30 0 17 -5 28 -14 28 -9 0 -12 -7 -9 -19z"/>
<path d="M1220 360 c0 -5 7 -10 15 -10 8 0 15 5 15 10 0 6 -7 10 -15 10 -8 0
-15 -4 -15 -10z"/>
<path d="M290 325 c0 -8 7 -15 15 -15 8 0 15 7 15 15 0 8 -7 15 -15 15 -8 0
-15 -7 -15 -15z"/>
<path d="M4 297 c-2 -7 -3 -62 -2 -123 l3 -109 120 0 120 0 0 120 0 120 -118
3 c-91 2 -119 0 -123 -11z m204 -114 l-3 -88 -65 -3 c-109 -5 -110 -4 -110 87
0 43 3 81 7 84 3 4 44 7 90 7 l84 0 -3 -87z"/>
<path d="M74 227 c-3 -8 -4 -32 -2 -53 l3 -39 50 0 50 0 0 50 0 50 -48 3 c-34
2 -49 -1 -53 -11z"/>
<path d="M330 283 c0 -10 6 -12 21 -8 18 6 20 4 15 -13 -6 -17 -1 -19 44 -21
44 -1 50 2 50 20 0 13 6 19 16 17 10 -2 19 2 21 9 3 8 -21 11 -81 11 -69 0
-86 -3 -86 -15z m110 -13 c0 -5 -4 -10 -10 -10 -5 0 -10 5 -10 10 0 6 5 10 10
10 6 0 10 -4 10 -10z"/>
<path d="M542 288 c6 -16 58 -19 58 -4 0 8 -13 13 -31 14 -17 0 -29 -4 -27
-10z"/>
<path d="M650 285 c0 -9 5 -15 11 -13 6 2 11 8 11 13 0 5 -5 11 -11 13 -6 2
-11 -4 -11 -13z"/>
<path d="M722 270 c0 -18 4 -30 12 -30 7 0 13 12 13 30 0 17 -6 30 -12 30 -7
0 -12 -13 -13 -30z"/>
<path d="M792 289 c2 -6 8 -10 13 -10 5 0 11 4 13 10 2 6 -4 11 -13 11 -9 0
-15 -5 -13 -11z"/>
<path d="M1010 270 c0 -16 5 -30 10 -30 6 0 10 14 10 30 0 17 -4 30 -10 30 -5
0 -10 -13 -10 -30z"/>
<path d="M1080 285 c0 -8 5 -15 10 -15 6 0 10 7 10 15 0 8 -4 15 -10 15 -5 0
-10 -7 -10 -15z"/>
<path d="M1150 270 c0 -27 3 -30 30 -30 21 0 30 5 30 16 0 11 -6 14 -20 9 -16
-5 -20 -2 -20 14 0 12 -4 21 -10 21 -5 0 -10 -13 -10 -30z"/>
<path d="M1220 285 c0 -8 16 -12 47 -10 65 2 68 22 3 22 -33 0 -50 -4 -50 -12z"/>
<path d="M297 263 c-12 -11 -8 -23 8 -23 8 0 15 7 15 15 0 16 -12 20 -23 8z"/>
<path d="M830 255 c0 -8 5 -15 10 -15 6 0 10 7 10 15 0 8 -4 15 -10 15 -5 0
-10 -7 -10 -15z"/>
<path d="M937 263 c-12 -11 -8 -23 8 -23 8 0 15 7 15 15 0 16 -12 20 -23 8z"/>
<path d="M293 180 c0 -69 24 -69 26 0 0 36 -3 50 -13 50 -9 0 -13 -15 -13 -50z"/>
<path d="M330 198 l0 -28 74 0 c68 0 74 -2 69 -19 -4 -17 0 -20 27 -19 26 1
31 5 27 20 -4 14 1 18 21 19 15 1 33 1 40 0 6 -1 12 3 12 9 0 5 -9 10 -19 10
-14 0 -18 5 -14 18 4 17 -4 19 -116 18 l-121 0 0 -28z m40 2 c0 -5 -4 -10 -10
-10 -5 0 -10 5 -10 10 0 6 5 10 10 10 6 0 10 -4 10 -10z m70 0 c0 -5 -4 -10
-10 -10 -5 0 -10 5 -10 10 0 6 5 10 10 10 6 0 10 -4 10 -10z m70 -22 c0 -36
-12 -31 -16 7 -1 14 2 25 7 25 5 0 9 -14 9 -32z m35 22 c3 -5 1 -10 -4 -10 -6
0 -11 5 -11 10 0 6 2 10 4 10 3 0 8 -4 11 -10z"/>
<path d="M650 215 c0 -9 5 -15 11 -13 6 2 11 8 11 13 0 5 -5 11 -11 13 -6 2
-11 -4 -11 -13z"/>
<path d="M720 217 c0 -8 12 -14 30 -14 18 0 30 6 30 14 0 8 -12 13 -30 13 -18
0 -30 -5 -30 -13z"/>
<path d="M790 215 c0 -8 17 -12 50 -12 33 0 50 4 50 12 0 8 -17 12 -50 12 -33
0 -50 -4 -50 -12z"/>
<path d="M970 215 c0 -9 11 -13 30 -13 17 1 30 6 30 13 0 7 -13 12 -30 13 -19
0 -30 -4 -30 -13z"/>
<path d="M1040 200 c0 -18 5 -30 13 -30 9 0 14 12 15 30 0 20 -4 30 -14 30 -9
0 -14 -11 -14 -30z"/>
<path d="M1080 199 c0 -16 5 -29 10 -29 6 0 10 8 10 18 0 12 8 17 25 17 17 0
25 -5 25 -17 0 -11 8 -18 20 -18 14 0 20 -6 18 -17 -2 -14 4 -18 25 -18 15 0
27 5 27 10 0 6 -8 10 -18 10 -10 0 -17 8 -17 20 0 14 -6 19 -18 17 -13 -2 -17
2 -15 15 3 15 -5 18 -44 19 -47 2 -48 1 -48 -27z"/>
<path d="M1220 212 c0 -9 7 -11 20 -7 16 5 20 2 20 -14 0 -12 5 -21 10 -21 6
0 10 9 10 19 0 11 6 18 16 17 9 0 19 4 21 10 3 8 -13 11 -47 11 -35 -1 -50 -6
-50 -15z"/>
<path d="M900 180 c0 -5 9 -10 20 -10 14 0 20 -6 18 -16 -2 -10 2 -19 9 -21 7
-3 11 7 11 26 -1 27 -5 31 -30 31 -15 0 -28 -4 -28 -10z"/>
<path d="M720 145 c0 -9 11 -13 30 -13 17 1 30 6 30 13 0 7 -13 12 -30 13 -19
0 -30 -4 -30 -13z"/>
<path d="M830 145 c0 -7 14 -12 30 -13 19 0 30 4 30 13 0 9 -11 13 -30 13 -16
-1 -30 -6 -30 -13z"/>
<path d="M1290 145 c0 -8 7 -15 15 -15 8 0 15 7 15 15 0 8 -7 15 -15 15 -8 0
-15 -7 -15 -15z"/>
<path d="M332 109 c2 -6 8 -10 13 -10 5 0 11 4 13 10 2 6 -4 11 -13 11 -9 0
-15 -5 -13 -11z"/>
<path d="M440 91 c0 -27 2 -28 45 -28 43 0 45 1 45 28 0 16 -4 29 -10 29 -5 0
-10 -9 -10 -20 0 -11 -5 -20 -11 -20 -6 0 -8 9 -4 20 5 17 2 20 -24 20 -27 0
-31 -3 -31 -29z"/>
<path d="M580 104 c0 -8 5 -12 10 -9 6 3 10 10 10 16 0 5 -4 9 -10 9 -5 0 -10
-7 -10 -16z"/>
<path d="M752 108 c6 -18 28 -21 28 -4 0 9 -7 16 -16 16 -9 0 -14 -5 -12 -12z"/>
<path d="M793 91 c0 -27 2 -28 49 -28 35 0 48 4 48 14 0 10 -6 12 -20 8 -16
-5 -20 -2 -20 14 0 16 -6 21 -28 21 -25 0 -29 -4 -29 -29z m37 -1 c0 -5 -2
-10 -4 -10 -3 0 -8 5 -11 10 -3 6 -1 10 4 10 6 0 11 -4 11 -10z"/>
<path d="M932 109 c2 -6 8 -10 13 -10 5 0 11 4 13 10 2 6 -4 11 -13 11 -9 0
-15 -5 -13 -11z"/>
<path d="M1080 90 c0 -16 5 -30 10 -30 6 0 10 14 10 30 0 17 -4 30 -10 30 -5
0 -10 -13 -10 -30z"/>
<path d="M1150 92 c0 -25 4 -29 30 -30 27 -1 30 3 30 29 0 26 -3 29 -30 29
-26 0 -30 -4 -30 -28z m40 -2 c0 -5 -4 -10 -10 -10 -5 0 -10 5 -10 10 0 6 5
10 10 10 6 0 10 -4 10 -10z"/>
<path d="M1290 100 c0 -13 -5 -18 -15 -14 -9 4 -15 0 -15 -8 0 -10 11 -15 28
-16 25 0 29 3 29 29 0 17 -6 29 -14 29 -7 0 -13 -9 -13 -20z"/>
<path d="M297 83 c-12 -11 -8 -23 8 -23 8 0 15 7 15 15 0 16 -12 20 -23 8z"/>
<path d="M367 84 c-8 -8 1 -24 14 -24 5 0 9 7 9 15 0 15 -12 20 -23 9z"/>
<path d="M617 83 c-12 -11 -8 -23 8 -23 8 0 15 7 15 15 0 16 -12 20 -23 8z"/>
<path d="M720 76 c0 -9 7 -16 16 -16 9 0 14 5 12 12 -6 18 -28 21 -28 4z"/>
<path d="M900 75 c0 -9 5 -15 11 -13 6 2 11 8 11 13 0 5 -5 11 -11 13 -6 2
-11 -4 -11 -13z"/>
<path d="M970 76 c0 -9 7 -16 16 -16 9 0 14 5 12 12 -6 18 -28 21 -28 4z"/>
<path d="M1040 75 c0 -8 7 -15 15 -15 8 0 15 7 15 15 0 8 -7 15 -15 15 -8 0
-15 -7 -15 -15z"/>
</g>
</svg>
